<svg width="28" height="22" viewBox="0 0 28 22" fill="none" xmlns="http://www.w3.org/2000/svg">
<path d="M28 2.6096C26.9703 3.05059 25.8642 3.34856 24.7013 3.48324C25.9012 2.78933 26.7988 1.69719 27.2268 0.410618C26.0995 1.05779 24.8658 1.51332 23.5791 1.75742C22.7139 0.864556 21.5679 0.272751 20.3191 0.0738863C19.0702 -0.124978 17.7884 0.080224 16.6725 0.657635C15.5567 1.23505 14.6693 2.15236 14.1482 3.26716C13.627 4.38195 13.5012 5.63186 13.7904 6.82283C11.5062 6.71198 9.27163 6.13817 7.23174 5.13862C5.19185 4.13907 3.39221 2.73613 1.94962 1.02085C1.45635 1.84324 1.17273 2.79672 1.17273 3.81219C1.17218 4.72634 1.4051 5.62649 1.85081 6.43277C2.29653 7.23906 2.94127 7.92654 3.72783 8.43423C2.81563 8.40617 1.92356 8.16795 1.12587 7.73937V7.81088C1.12578 9.09302 1.58464 10.3357 2.42461 11.3281C3.26457 12.3204 4.43389 13.0014 5.73417 13.2553C4.88796 13.4767 4.00077 13.5093 3.13961 13.3507C3.50647 14.4539 4.22108 15.4186 5.1834 16.1097C6.14572 16.8009 7.30757 17.1839 8.5063 17.2051C6.47139 18.7491 3.95829 19.5866 1.37127 19.5829C0.913004 19.583 0.455128 19.5571 0 19.5054C2.62597 21.1373 5.68279 22.0034 8.80472 22C19.3729 22 25.1502 13.5402 25.1502 6.20306C25.1502 5.96469 25.144 5.72393 25.1329 5.48556C26.2567 4.7001 27.2267 3.72744 27.9975 2.61318L28 2.6096Z" fill="#8E8E8E" fill-opacity="0.8"/>
</svg>
